<?xml version="1.0" standalone="no"?>
<!DOCTYPE svg PUBLIC "-//W3C//DTD SVG 20010904//EN"
 "http://www.w3.org/TR/2001/REC-SVG-20010904/DTD/svg10.dtd">
<svg version="1.0" xmlns="http://www.w3.org/2000/svg"
 width="883.000000pt" height="718.000000pt" viewBox="0 0 883.000000 718.000000"
 preserveAspectRatio="xMidYMid meet">

<g transform="translate(0.000000,718.000000) scale(0.100000,-0.100000)"
fill="#000000" stroke="none">
<path d="M0 3590 l0 -3590 4415 0 4415 0 0 3590 0 3590 -4415 0 -4415 0 0
-3590z m3780 2202 c0 -58 5 -103 11 -109 8 -8 8 -17 -1 -32 -6 -12 -10 -45 -8
-74 l3 -52 37 -3 c34 -3 38 0 44 25 10 46 15 51 10 11 l-5 -38 54 0 55 0 2
183 3 182 332 3 333 2 2 -182 3 -183 61 -3 61 -3 -5 31 c-6 41 13 82 49 109
29 22 29 22 29 127 l0 105 153 -3 152 -3 3 -437 2 -438 -40 0 c-36 0 -99 -18
-141 -40 -12 -6 -15 -3 -15 14 1 25 -36 35 -60 16 -21 -18 -18 -70 4 -71 16
-1 16 -2 -1 -6 -17 -4 -53 -61 -44 -69 2 -3 42 11 88 31 63 26 85 32 91 22 5
-6 8 -94 7 -195 -1 -168 0 -184 17 -198 13 -9 14 -12 4 -9 -11 4 -19 -3 -25
-21 -8 -21 -26 -34 -75 -55 -36 -15 -65 -33 -65 -40 0 -7 27 -23 60 -37 33
-13 66 -31 73 -40 8 -11 12 -58 12 -148 l0 -132 42 -37 c60 -51 135 -85 209
-94 60 -8 61 -9 18 -10 -58 -1 -130 23 -194 65 -27 18 -51 31 -53 29 -3 -2 -1
-20 2 -40 9 -45 54 -97 109 -124 32 -16 37 -21 20 -21 -26 0 -28 -12 -12 -59
18 -52 50 -38 52 24 1 33 1 33 56 37 41 4 59 10 73 28 20 24 25 70 7 70 -5 0
1 10 16 23 16 14 29 39 34 67 7 34 9 38 10 16 1 -16 -9 -49 -21 -73 -21 -43
-21 -44 -4 -93 20 -54 17 -72 -18 -111 -43 -49 -91 -63 -119 -34 -10 10 -25
13 -45 9 -34 -7 -47 8 -60 71 -9 44 -24 47 -36 6 -13 -44 -50 -43 -65 0 -6 18
-11 40 -11 50 0 11 -6 19 -12 18 -24 0 -153 -57 -152 -65 0 -5 33 -22 72 -39
47 -20 73 -37 76 -50 9 -30 7 -418 -2 -432 -5 -8 -26 -3 -76 18 -37 16 -72 29
-77 29 -5 0 -7 -30 -5 -67 l3 -68 134 -5 134 -5 0 -255 0 -255 -835 0 -835 0
0 255 0 255 136 3 136 3 6 71 c3 40 5 73 4 75 -2 1 -40 -13 -86 -31 -56 -23
-84 -30 -87 -22 -2 6 -3 110 -2 231 l3 219 73 30 c40 16 71 34 69 39 -1 5 -32
22 -69 37 l-66 28 -10 -21 c-9 -20 -11 -18 -11 16 -1 43 -6 45 -38 15 -27 -25
-30 -56 -8 -84 15 -19 15 -19 30 0 16 21 19 18 9 -8 -3 -9 -17 -16 -30 -16
-18 0 -25 7 -32 33 -9 37 -24 39 -34 5 -4 -17 -6 -18 -7 -5 -1 25 -54 20 -59
-6 -11 -54 29 -91 48 -44 6 15 9 17 9 6 1 -25 -25 -42 -53 -35 -14 3 -28 2
-31 -4 -15 -24 -22 -7 -9 20 22 44 15 64 -24 68 -31 3 -32 2 -32 -34 0 -21 7
-46 17 -56 15 -17 15 -18 -3 -18 -43 1 -102 58 -106 102 -1 13 4 44 11 70 12
43 12 50 -8 81 -26 43 -27 96 -1 179 40 131 144 261 286 359 l74 51 0 199 c0
110 2 199 4 199 3 0 42 -16 87 -35 80 -34 109 -41 109 -30 0 20 -34 65 -48 65
-10 0 -31 13 -48 28 -33 32 -118 62 -175 62 l-39 0 0 440 0 440 150 0 150 0 0
-98z m84 -169 c10 -25 3 -23 -17 3 -13 18 -14 22 -3 18 8 -3 17 -13 20 -21z
m1277 -1160 c13 -16 12 -17 -3 -4 -10 7 -18 15 -18 17 0 8 8 3 21 -13z m119
-99 c28 -31 24 -29 -20 10 -74 66 -80 73 -45 48 17 -11 46 -37 65 -58z m126
-170 c8 -20 13 -38 11 -40 -2 -2 -11 14 -20 36 -19 50 -12 53 9 4z m41 -141
c-3 -10 -5 -4 -5 12 0 17 2 24 5 18 2 -7 2 -21 0 -30z m-4726 -1894 c21 -7 54
-25 75 -42 38 -32 84 -116 84 -154 0 -21 -4 -23 -60 -23 -54 0 -60 2 -60 21 0
12 -15 36 -34 55 -55 55 -136 44 -176 -23 -19 -32 -20 -52 -20 -300 l0 -266
24 -32 c35 -46 77 -61 126 -46 42 12 80 52 80 82 0 16 8 19 60 19 56 0 60 -2
60 -22 0 -33 -43 -120 -71 -143 -53 -45 -91 -58 -164 -58 -81 0 -121 18 -173
77 -60 69 -63 92 -60 412 l3 290 32 49 c63 98 165 136 274 104z m2477 -10 c24
-12 56 -33 70 -46 31 -29 72 -108 72 -140 0 -21 -4 -23 -60 -23 -51 0 -60 3
-60 18 0 10 -13 33 -29 52 -27 32 -33 35 -86 35 -53 0 -59 -3 -86 -35 -21 -25
-29 -45 -29 -74 0 -43 -2 -40 242 -271 76 -72 86 -86 98 -134 26 -109 -6 -198
-97 -267 -72 -55 -191 -53 -261 3 -49 40 -90 100 -98 146 l-6 37 58 0 59 -1
20 -41 c54 -112 215 -70 215 56 0 43 -16 61 -204 231 -71 63 -95 92 -119 143
-25 54 -29 72 -24 120 8 96 70 174 162 204 44 14 119 8 163 -13z m813 11 c47
-13 123 -80 139 -122 6 -18 17 -43 22 -55 16 -33 2 -43 -57 -43 -53 0 -55 1
-69 33 -20 48 -61 77 -108 77 -79 0 -134 -93 -96 -163 15 -29 122 -137 136
-137 5 0 45 -35 88 -77 69 -68 81 -86 97 -138 19 -65 22 -121 8 -130 -5 -3
-12 -19 -16 -36 -8 -37 -53 -90 -102 -120 -28 -18 -50 -22 -107 -22 -39 0 -83
5 -98 11 -48 19 -106 80 -122 129 -27 78 -24 83 39 83 53 0 55 -1 69 -35 16
-38 67 -75 104 -75 31 0 77 25 96 52 10 13 16 43 16 73 0 49 -1 51 -72 118
-40 38 -84 75 -98 82 -37 20 -114 105 -141 156 -19 36 -24 59 -24 124 0 73 3
84 30 121 64 89 161 123 266 94z m-2629 -202 l3 -193 105 0 105 0 3 193 2 192
60 0 60 0 -2 -452 -3 -453 -57 -3 -58 -3 0 201 0 200 -110 0 -110 0 0 -200 0
-200 -60 0 -60 0 0 455 0 455 60 0 60 0 2 -192z m1098 132 l0 -60 -135 0 -135
0 0 -135 0 -135 90 0 90 0 0 -65 0 -65 -90 0 -90 0 0 -135 0 -135 135 0 135 0
0 -60 0 -60 -197 2 -198 3 -3 440 c-1 242 0 446 3 453 3 9 53 12 200 12 l195
0 0 -60z m2856 48 c8 -13 35 -103 64 -213 10 -38 27 -99 38 -135 11 -36 28
-91 38 -124 l18 -59 13 44 c24 75 63 211 83 289 11 41 24 84 29 95 5 11 15 41
21 68 l13 47 58 0 59 0 0 -455 0 -456 -57 3 -58 3 -5 215 c-3 118 -7 203 -8
188 -1 -15 -6 -29 -11 -32 -5 -3 -17 -41 -26 -83 -10 -43 -21 -82 -25 -88 -4
-5 -10 -22 -14 -37 -6 -27 -9 -28 -70 -28 -73 0 -72 -2 -106 125 -52 189 -48
192 -52 -45 l-3 -215 -60 0 -60 0 -3 440 c-1 242 0 446 3 453 6 16 111 16 121
0z m1184 -60 c6 -40 15 -82 20 -93 5 -11 16 -69 25 -130 9 -60 20 -119 25
-130 5 -11 18 -74 29 -140 11 -66 26 -151 34 -190 8 -38 17 -89 21 -112 l6
-43 -64 0 -64 0 -7 58 c-3 31 -11 72 -18 90 l-11 32 -92 0 c-53 0 -96 -4 -99
-10 -4 -6 -12 -45 -18 -88 l-12 -77 -65 0 c-53 0 -64 3 -61 15 2 8 17 87 32
175 16 88 40 219 54 290 14 72 34 180 45 240 11 61 25 127 31 148 l12 37 83 0
82 0 12 -72z m970 12 l0 -59 -72 -3 -73 -3 -3 -393 -2 -393 -58 3 -57 3 -3
393 -2 392 -75 0 -75 0 0 53 c0 30 3 57 7 60 3 4 98 7 210 7 l203 0 0 -60z
m778 -2 l3 -57 -138 -3 -138 -3 0 -130 0 -130 93 -3 92 -3 0 -64 0 -64 -92 -3
-93 -3 0 -130 0 -130 138 -3 138 -3 -3 -57 -3 -57 -195 0 -195 0 -3 453 -2
452 197 -2 198 -3 3 -57z"/>
<path d="M3570 5655 l0 -135 50 0 50 0 -1 38 c-1 20 4 50 10 65 6 16 11 60 11
98 l0 69 -60 0 -60 0 0 -135z"/>
<path d="M4080 5677 c0 -63 3 -116 6 -119 3 -4 21 0 40 8 19 8 62 16 97 19 60
4 61 4 12 -4 -80 -13 -132 -30 -145 -46 -11 -13 16 -15 225 -15 215 0 237 2
231 16 -4 9 -2 22 4 29 7 8 10 54 8 116 l-3 104 -237 3 -238 2 0 -113z m348
-94 c-10 -2 -28 -2 -40 0 -13 2 -5 4 17 4 22 1 32 -1 23 -4z m59 -9 c-3 -3
-12 -4 -19 -1 -8 3 -5 6 6 6 11 1 17 -2 13 -5z"/>
<path d="M4947 5783 c-12 -11 -7 -107 6 -133 12 -22 11 -28 0 -39 -17 -15 -13
-73 4 -78 7 -3 13 11 16 39 l4 43 1 -47 2 -48 40 0 40 0 0 135 0 135 -53 0
c-30 0 -57 -3 -60 -7z"/>
<path d="M4806 5629 c-42 -50 -31 -109 21 -109 22 0 23 4 23 64 0 36 -4 67 -9
70 -5 4 -21 -8 -35 -25z"/>
<path d="M3577 5413 c-4 -3 -7 -49 -7 -101 0 -82 2 -93 16 -88 9 3 28 9 42 12
15 4 42 20 60 37 29 28 32 36 32 89 l0 58 -68 0 c-38 0 -72 -3 -75 -7z"/>
<path d="M3737 5413 c-4 -3 -7 -26 -7 -50 0 -36 4 -45 23 -52 22 -9 22 -9 -6
-16 -15 -4 -38 -21 -52 -37 -23 -27 -26 -38 -23 -92 l3 -61 39 0 c39 0 40 1
51 45 7 25 19 59 27 75 28 55 31 75 12 75 -14 0 -15 3 -6 12 7 7 12 34 12 60
0 48 0 48 -33 48 -19 0 -37 -3 -40 -7z"/>
<path d="M3826 5404 c-9 -24 -7 -72 3 -79 8 -4 71 76 71 91 0 2 -15 4 -34 4
-22 0 -36 -6 -40 -16z"/>
<path d="M3916 5404 c-51 -51 -132 -201 -142 -263 l-6 -40 516 -1 c404 0 516
2 516 12 0 24 -34 103 -61 143 -42 62 -92 105 -140 121 l-44 14 39 -4 c73 -9
165 -111 208 -228 19 -53 23 -58 51 -58 29 0 29 0 23 43 -8 49 -32 101 -87
189 -34 54 -35 58 -8 26 17 -21 35 -35 40 -32 10 6 12 54 3 78 -7 18 -74 23
-74 6 0 -7 -6 -7 -19 0 -13 6 -160 10 -410 10 -341 0 -392 -2 -405 -16z m597
-11 c-7 -2 -19 -2 -25 0 -7 3 -2 5 12 5 14 0 19 -2 13 -5z m-463 -18 c-46 -18
-61 -18 -30 0 14 8 34 14 45 14 13 0 8 -5 -15 -14z m380 3 c-25 -3 -72 -7
-105 -7 -33 0 -80 4 -105 7 -27 4 15 7 105 7 90 0 132 -3 105 -7z m-456 -42
c-3 -8 -13 -17 -22 -21 -13 -5 -13 -2 3 15 21 24 26 25 19 6z m124 -138 l3
-68 -34 0 c-40 0 -45 8 -42 71 3 59 11 71 43 67 26 -3 27 -6 30 -70z m521 58
c7 -8 11 -37 9 -68 l-3 -53 -35 0 -35 0 -3 54 c-2 29 -1 60 2 67 7 18 50 18
65 0z m-748 -71 c-9 -25 -17 -41 -19 -36 -3 10 24 81 31 81 3 0 -3 -20 -12
-45z"/>
<path d="M4842 5361 c1 -32 0 -63 -4 -66 -4 -4 0 -22 9 -39 9 -17 24 -58 33
-91 l17 -60 41 -3 42 -3 0 65 c0 54 -4 69 -25 94 -14 16 -37 33 -52 37 -28 7
-28 7 -5 16 20 8 23 14 20 56 -3 48 -3 48 -41 51 l-39 3 4 -60z"/>
<path d="M4930 5363 c1 -49 5 -63 29 -89 17 -19 43 -34 65 -38 l36 -7 0 96 0
95 -65 0 -65 0 0 -57z"/>
<path d="M3594 5205 c-20 -20 -25 -34 -22 -63 3 -36 4 -37 43 -37 l40 0 3 63
c3 57 1 62 -18 62 -11 0 -32 -11 -46 -25z"/>
<path d="M4992 5168 c3 -63 3 -63 36 -66 l32 -3 0 55 c0 44 -4 57 -19 66 -44
23 -52 14 -49 -52z"/>
<path d="M3685 5000 c-13 -21 32 -70 64 -70 15 0 14 53 -1 68 -14 14 -54 16
-63 2z"/>
<path d="M3773 4959 c4 -27 17 -69 29 -92 21 -38 32 -45 133 -87 l110 -45 275
0 275 0 105 44 c58 24 117 55 132 69 29 27 56 116 44 147 -10 26 -48 15 -57
-17 -23 -87 -88 -132 -212 -148 -87 -11 -205 -12 -232 0 -12 4 31 8 105 8 188
0 269 28 311 107 21 39 22 47 9 56 -9 6 -94 8 -215 7 -176 -3 -203 -5 -228
-22 -27 -18 -28 -18 -76 3 -45 19 -68 21 -240 21 -164 0 -191 -2 -199 -16 -8
-15 -10 -15 -15 0 -4 9 -18 16 -33 16 -26 0 -27 -1 -21 -51z m187 -97 c56 -20
85 -23 200 -24 101 0 129 -3 110 -10 -36 -15 -246 -3 -305 17 -52 18 -115 69
-115 93 0 8 10 0 23 -19 17 -26 39 -40 87 -57z"/>
<path d="M4302 4998 c5 -15 37 -18 41 -3 1 6 -9 12 -22 13 -16 3 -22 -1 -19
-10z"/>
<path d="M4826 4731 c-60 -25 -111 -51 -113 -57 -2 -5 23 -21 54 -34 32 -13
77 -36 101 -51 25 -16 51 -25 62 -22 18 5 20 14 20 104 0 54 -3 100 -7 102 -5
2 -57 -16 -117 -42z"/>
<path d="M3680 4675 c0 -93 1 -96 26 -105 22 -9 35 -5 82 24 32 19 78 42 105
51 26 10 47 21 47 25 0 9 -220 100 -242 100 -16 0 -18 -11 -18 -95z"/>
<path d="M4101 4715 c12 -11 201 -85 218 -85 18 0 197 73 209 85 3 3 -93 5
-213 5 -120 0 -216 -2 -214 -5z"/>
<path d="M3900 4611 c-54 -58 -85 -112 -77 -134 9 -25 56 -32 100 -16 39 14
49 24 61 62 4 14 17 17 70 17 70 0 120 14 114 31 -4 13 -181 89 -206 89 -9 0
-37 -22 -62 -49z"/>
<path d="M4553 4618 c-51 -22 -93 -44 -93 -48 0 -15 35 -23 119 -29 85 -6 85
-6 93 -37 8 -31 41 -54 77 -54 35 0 81 22 81 38 0 48 -116 173 -159 171 -14 0
-68 -19 -118 -41z"/>
<path d="M4770 4624 c0 -12 61 -104 69 -104 4 0 17 7 29 16 19 13 21 18 11 31
-15 17 -109 66 -109 57z"/>
<path d="M3819 4600 c-57 -30 -65 -45 -34 -66 26 -17 28 -17 45 6 60 79 57 96
-11 60z"/>
<path d="M4905 4546 c-32 -14 -61 -43 -52 -52 8 -8 76 18 89 34 18 21 -4 32
-37 18z"/>
<path d="M3690 4536 c0 -18 99 -61 112 -48 7 7 -3 19 -28 36 -42 28 -84 34
-84 12z"/>
<path d="M3990 4511 c0 -18 15 -19 40 -5 l25 13 -32 1 c-18 0 -33 -4 -33 -9z"/>
<path d="M4600 4505 c33 -19 60 -19 60 0 0 11 -11 15 -42 15 -42 -1 -43 -1
-18 -15z"/>
<path d="M4248 4489 l-47 -21 24 -47 c42 -80 40 -79 74 -47 28 27 30 27 55 10
23 -15 30 -15 52 -3 20 10 29 11 42 1 36 -26 45 -25 69 4 12 16 23 31 23 34 0
9 -203 90 -225 90 -11 0 -41 -10 -67 -21z"/>
<path d="M3504 4447 c-150 -111 -252 -256 -276 -396 -9 -54 -8 -69 6 -98 9
-18 23 -36 32 -40 12 -4 13 -8 3 -14 -19 -12 2 -71 31 -87 16 -8 47 -11 89 -9
94 7 172 67 187 145 8 40 -2 41 -58 3 -57 -38 -131 -61 -187 -60 -42 1 -41 2
19 10 72 9 173 56 214 98 25 26 26 31 28 175 l3 148 70 28 c38 15 71 32 72 37
2 6 -29 23 -68 39 -43 17 -74 36 -77 47 -7 26 -24 21 -88 -26z"/>
<path d="M4113 4432 l-31 -17 19 -24 c23 -28 41 -18 58 30 12 34 2 37 -46 11z"/>
<path d="M4160 4390 c-13 -27 -21 -52 -18 -56 3 -3 39 -17 79 -31 82 -28 136
-27 214 7 51 22 56 35 20 52 -20 9 -31 8 -50 -2 -21 -11 -27 -11 -43 3 -25 23
-34 21 -62 -8 -13 -14 -27 -25 -31 -25 -4 0 -22 25 -39 55 -17 30 -35 55 -39
55 -4 0 -18 -22 -31 -50z"/>
<path d="M4035 4399 c-4 -6 -4 -13 -1 -16 8 -8 36 5 36 17 0 13 -27 13 -35 -1z"/>
<path d="M4535 4380 c-31 -32 -26 -36 24 -19 34 12 33 11 25 33 -9 22 -16 20
-49 -14z"/>
<path d="M4075 4370 c-3 -5 1 -10 9 -10 9 0 16 5 16 10 0 6 -4 10 -9 10 -6 0
-13 -4 -16 -10z"/>
<path d="M3818 4313 c-55 -25 -77 -48 -61 -64 20 -18 208 -88 215 -81 5 5 8
35 6 68 -3 53 -6 60 -33 75 -49 28 -67 28 -127 2z"/>
<path d="M4717 4326 c-40 -18 -47 -32 -47 -98 0 -42 4 -58 13 -58 8 0 56 18
108 39 118 50 121 63 25 103 -38 15 -69 28 -70 27 -1 0 -14 -6 -29 -13z"/>
<path d="M3992 4210 c4 -75 25 -95 30 -28 3 39 6 43 31 46 24 3 27 0 27 -28 0
-45 34 -38 38 8 3 27 -1 34 -25 43 -15 6 -45 13 -66 16 l-38 6 3 -63z"/>
<path d="M4552 4255 c-31 -14 -33 -17 -27 -47 4 -18 9 -35 11 -37 7 -8 24 12
24 30 0 23 27 36 43 20 6 -6 11 -27 10 -46 -1 -39 0 -40 28 -25 15 9 19 22 19
65 l0 55 -37 0 c-21 -1 -53 -7 -71 -15z"/>
<path d="M4034 4194 c-7 -27 7 -50 25 -40 6 4 11 20 11 37 0 37 -27 40 -36 3z"/>
<path d="M4137 4214 c-8 -8 1 -24 14 -24 5 0 9 7 9 15 0 15 -12 20 -23 9z"/>
<path d="M4485 4200 c3 -5 10 -10 16 -10 5 0 9 5 9 10 0 6 -7 10 -16 10 -8 0
-12 -4 -9 -10z"/>
<path d="M4572 4185 c2 -14 8 -26 13 -26 6 0 11 12 13 26 2 18 -1 25 -13 25
-12 0 -15 -7 -13 -25z"/>
<path d="M3680 4150 c0 -5 7 -10 15 -10 8 0 15 5 15 10 0 6 -7 10 -15 10 -8 0
-15 -4 -15 -10z"/>
<path d="M4265 4139 c-83 -34 -77 -39 48 -39 64 0 117 2 117 6 0 4 -106 55
-113 53 -1 0 -24 -9 -52 -20z"/>
<path d="M3700 4118 c-23 -39 -27 -96 -6 -104 22 -9 56 14 57 39 1 22 1 22 7
1 l7 -21 53 20 c28 11 52 25 52 32 0 12 -79 47 -110 50 -9 0 -21 4 -28 8 -7 5
-19 -4 -32 -25z"/>
<path d="M4916 4130 c-18 -89 -14 -120 15 -120 16 0 19 7 19 53 0 30 -6 62
-14 73 -14 18 -15 18 -20 -6z"/>
<path d="M4813 4117 c-29 -12 -53 -26 -53 -32 0 -12 119 -60 127 -51 3 3 8 28
11 56 5 59 -1 61 -85 27z"/>
<path d="M4185 4081 c-6 -10 72 -49 117 -58 30 -6 161 45 152 59 -7 11 -262
10 -269 -1z"/>
<path d="M3903 3987 c-56 -23 -107 -47 -113 -53 -20 -20 7 -63 51 -83 l42 -19
106 45 c58 24 123 51 144 60 20 8 37 19 37 25 0 11 -101 57 -139 64 -16 2 -64
-12 -128 -39z"/>
<path d="M4531 4001 c-36 -15 -66 -31 -68 -37 -4 -12 263 -125 292 -124 28 1
86 32 98 51 6 9 8 23 5 31 -7 16 -220 109 -247 107 -9 0 -45 -13 -80 -28z"/>
<path d="M5052 3930 c0 -14 2 -19 5 -12 2 6 2 18 0 25 -3 6 -5 1 -5 -13z"/>
<path d="M3748 3922 c-10 -2 -18 -7 -18 -12 0 -12 40 -33 47 -26 12 11 -12 42
-29 38z"/>
<path d="M4875 3909 c-10 -15 1 -23 20 -15 9 3 13 10 10 16 -8 13 -22 13 -30
-1z"/>
<path d="M4210 3866 c-172 -70 -180 -75 -180 -85 0 -6 1 -11 3 -11 2 0 64 -25
137 -55 73 -30 140 -55 147 -55 20 0 266 101 282 116 12 11 11 15 -10 22 -13
6 -79 33 -146 61 -68 28 -124 51 -125 51 -2 0 -50 -20 -108 -44z"/>
<path d="M5073 3828 c8 -63 22 -81 43 -54 21 29 17 59 -9 84 -35 33 -40 27
-34 -30z"/>
<path d="M3247 3824 c-10 -10 -9 -52 2 -58 11 -7 22 46 12 57 -4 4 -10 4 -14
1z"/>
<path d="M5386 3822 c-8 -13 5 -53 16 -50 5 2 9 7 9 11 -1 4 -1 16 -1 27 0 20
-14 27 -24 12z"/>
<path d="M3270 3761 c0 -30 5 -43 21 -51 19 -11 20 -9 17 37 -2 36 -7 49 -20
51 -15 3 -18 -4 -18 -37z"/>
<path d="M5340 3750 c0 -48 1 -50 20 -40 15 8 20 21 20 50 0 33 -3 40 -20 40
-17 0 -20 -7 -20 -50z"/>
<path d="M5265 3780 c-9 -15 4 -67 21 -81 22 -18 44 7 44 52 0 36 -2 39 -29
39 -17 0 -33 -5 -36 -10z"/>
<path d="M3880 3714 c0 -36 123 -174 155 -174 25 0 136 53 132 63 -3 9 -102
54 -244 110 -38 15 -43 15 -43 1z"/>
<path d="M4606 3671 c-77 -32 -142 -63 -143 -68 -4 -12 116 -63 146 -63 36 0
171 155 157 179 -10 15 -3 17 -160 -48z"/>
<path d="M3765 3682 c-33 -15 -66 -31 -72 -35 -19 -12 -18 -236 1 -243 39 -15
166 71 166 113 0 8 7 46 17 84 15 66 15 70 -2 89 -23 26 -37 25 -110 -8z"/>
<path d="M4774 3685 c-17 -26 -17 -23 17 -162 9 -40 6 -40 -35 -7 -28 24 -28
26 -7 19 23 -7 24 -6 18 35 -9 68 -21 71 -75 16 l-47 -48 40 6 40 6 -34 -15
c-41 -18 -37 -23 48 -59 42 -18 67 -23 71 -16 4 7 14 3 26 -11 19 -21 76 -49
100 -49 11 0 14 25 14 124 l0 123 -75 32 c-41 17 -77 31 -80 31 -2 0 -12 -11
-21 -25z"/>
<path d="M3890 3604 c-6 -14 -10 -37 -10 -50 0 -21 4 -24 21 -19 14 5 9 -4
-18 -28 -21 -20 -35 -38 -32 -42 4 -3 35 7 70 23 l64 28 -30 17 -30 16 28 1
c35 0 34 9 -6 48 -40 39 -45 39 -57 6z"/>
<path d="M4235 3515 c-44 -18 -81 -38 -83 -43 -3 -11 37 -26 119 -42 40 -8 70
-8 105 0 97 21 126 32 118 40 -7 7 -172 81 -177 80 -1 -1 -38 -16 -82 -35z"/>
<path d="M4090 3446 c0 -8 5 -18 10 -21 6 -3 10 3 10 14 0 12 -4 21 -10 21 -5
0 -10 -6 -10 -14z"/>
<path d="M4123 3434 c-3 -9 -1 -51 6 -93 6 -42 11 -97 11 -123 l0 -48 184 0
183 0 6 83 c4 45 9 105 13 133 4 34 2 54 -5 58 -6 4 -44 -2 -84 -13 -92 -26
-134 -26 -222 -1 -84 24 -84 24 -92 4z"/>
<path d="M4540 3442 c0 -4 5 -13 10 -18 7 -7 6 -22 -5 -47 -8 -20 -18 -74 -21
-121 l-7 -86 177 0 176 0 0 69 c0 51 -4 72 -16 82 -10 8 -74 37 -143 65 -90
37 -130 49 -138 42 -10 -8 -13 -6 -13 6 0 9 -4 16 -10 16 -5 0 -10 -4 -10 -8z"/>
<path d="M3925 3389 c-66 -28 -126 -56 -133 -63 -9 -8 -14 -40 -15 -82 l-2
-69 179 -3 179 -2 -6 86 c-7 92 -38 177 -67 181 -8 1 -69 -21 -135 -48z"/>
<path d="M3574 3057 c-2 -7 -3 -78 -2 -157 l3 -145 743 -3 742 -2 0 160 0 160
-36 0 c-32 0 -35 -2 -29 -22 l7 -23 -17 23 c-16 21 -21 22 -190 22 l-174 0
-20 -26 c-29 -37 -26 -52 12 -69 l32 -14 -36 5 c-29 5 -38 2 -43 -12 -5 -12
-1 -23 9 -30 25 -18 157 -35 267 -35 126 1 173 11 173 34 0 21 3 20 -120 13
-55 -4 -122 -2 -150 3 -40 7 -21 9 102 10 89 1 154 5 158 11 13 22 25 8 25
-29 0 -44 -2 -45 -140 -57 -108 -9 -313 18 -343 46 -4 3 -13 38 -20 76 l-13
69 -190 0 -189 0 -11 -61 c-6 -33 -13 -68 -17 -77 -15 -38 -302 -67 -439 -44
-48 8 -48 8 -48 48 0 37 8 48 23 32 4 -3 2 -12 -4 -19 -32 -39 29 -56 193 -55
96 0 233 22 251 40 5 5 4 17 -2 30 -10 17 -15 19 -38 10 -14 -5 -28 -8 -30 -5
-2 2 10 8 26 14 17 6 31 16 31 22 0 16 -21 53 -34 62 -6 4 -88 8 -182 8 -166
0 -172 -1 -188 -22 l-17 -23 6 23 c6 20 3 22 -35 22 -24 0 -43 -5 -46 -13z
m1443 -69 c-3 -8 -6 -5 -6 6 -1 11 2 17 5 13 3 -3 4 -12 1 -19z m-1024 -35
c-7 -2 -19 -2 -25 0 -7 3 -2 5 12 5 14 0 19 -2 13 -5z m690 0 c-7 -2 -19 -2
-25 0 -7 3 -2 5 12 5 14 0 19 -2 13 -5z m-795 -15 c-43 -7 -92 -7 -140 0 -70
9 -67 9 67 9 130 0 135 0 73 -9z"/>
<path d="M4060 3066 c0 -2 10 -26 21 -53 21 -45 22 -47 29 -23 5 14 8 37 9 53
1 24 -3 27 -29 27 -16 0 -30 -2 -30 -4z"/>
<path d="M4530 3041 c0 -61 21 -80 38 -33 5 15 13 35 17 45 6 14 2 17 -24 17
-28 0 -31 -3 -31 -29z"/>
<path d="M6383 1823 c-7 -38 -18 -99 -26 -138 -8 -38 -17 -87 -20 -107 l-6
-38 71 0 70 0 -6 43 c-14 110 -54 301 -62 304 -6 2 -15 -27 -21 -64z"/>
</g>
</svg>
